/* XPM */
static char * sjasmpg_xpm[] = {
"32 32 11 1",
" 	c None",
".	c #21C842",
"+	c #5EDC78",
"@	c #7D76FC",
"#	c #000000",
"$	c #CCCCCC",
"%	c #C95BBA",
"&	c #42EBF5",
"*	c #5455ED",
"=	c #E6CE80",
"-	c #FC5554",
" ...+  ....+  .+    ...+ .+   .+",
".+       .+  .+.+  .+    ..+ ..+",
".+       .+ .+  .+ .+    .+..+.+",
" ..+ @#$$.+$.+  .+  ..+  .+ + .+",
"   .+$.#$.+$.....+    .+ .+   .+",
" %#.+#.$$.+$.+$ .+    .+ .+   .+",
"...+$$&..+$$.+@# @@@@.+  .+   .+",
" ##@#&$$&$##@#%@@$$$$@@         ",
" #*#=-=&$#@$#@@$$$$$$$$@@       ",
" # &#&#####@@$$$$$$$$$$$$@@     ",
"   ###@$#@@$$$$$$$$$$$$$$$$@@   ",
"  ## ##@@$$$&&$$$$$$$$$$$$$$$@  ",
" #$%#@@$$$&&%%&&$$$$$$$$$$$@@%# ",
" #$#@@$$&&%%%%%%&&$$$$$$$@@%%%# ",
" #@#######%%%%%%%@@$$$$@@%%%%## ",
" #$##$%#==##%%%@@$$$$@@%%%%#### ",
" #@##%$#-===##@@$$$@@%%%%##$##  ",
" #$# ##$##=-=#$$$@@%%%%#####%$##",
"  #    ##$##=##@@%%%%##$##  ##$#",
"  #    #$##$##$##%%#####%$## #@#",
"       #%####$%$###$##  ##$# #$#",
"     ##%$##$###%####%$## #@# #@#",
"     #$## #%#  ##   ##$# #$# #$#",
"   #### ##%$#        #@# #@#  # ",
"  #     #$##         #$# #$#  # ",
"      ####           #@#  #     ",
"     #               #$#  #     ",
"                      #         ",
"                      #         ",
"                                ",
"                                ",
"                                "};
